<svg width="282" height="70" viewBox="0 0 282 70" fill="none" xmlns="http://www.w3.org/2000/svg">
<path d="M28.9073 54.8303C28.1036 54.8342 27.5145 54.7824 26.939 54.8488C24.9422 55.0795 24.3305 54.1631 24.365 52.2408C24.4621 46.8289 24.4144 41.4144 24.4181 36.0009C24.4187 35.1683 24.4192 34.3338 24.3683 33.5033C24.0588 28.4559 21.2839 25.3127 17.1029 25.252C12.503 25.1852 8.80137 28.3674 8.53154 33.2358C8.20934 39.0492 8.40733 44.89 8.26697 50.7161C8.23533 52.0297 8.01102 54.2857 7.40147 54.4611C5.55895 54.9914 3.4769 54.804 1.50493 54.6628C1.15548 54.6378 0.62242 53.4922 0.61946 52.8619C0.569418 42.2018 0.560942 31.5412 0.669783 20.882C0.676032 20.2699 1.66926 19.4687 2.38151 19.1241C2.98742 18.8311 3.86165 19.1541 4.59821 19.0584C6.92099 18.7569 8.58227 19.2422 8.33427 22.1506C17.8674 16.1254 23.3052 16.6164 29.3847 23.7374C30.5423 22.7666 31.6595 21.6883 32.9132 20.8034C37.6711 17.4454 42.8146 17.0024 48.0557 19.3731C53.1359 21.6711 55.4127 26.0068 55.521 31.4011C55.6631 38.4772 55.5204 45.5587 55.5729 52.6373C55.5839 54.1269 54.9993 54.7174 53.5723 54.8676C48.1554 55.4378 47.9735 55.2896 47.9703 49.8395C47.967 44.426 47.9708 39.0124 47.9232 33.5992C47.8813 28.8307 45.4065 25.7751 41.3137 25.3299C36.8979 24.8497 33.0762 27.5307 32.4433 32.2157C31.9233 36.0646 32.1466 40.0167 32.0839 43.9238C32.0413 46.5883 31.9345 49.2634 32.1141 51.9162C32.2726 54.255 31.4332 55.1983 28.9073 54.8303Z" fill="white"/>
<path d="M147.866 5.27909C154.565 4.83413 154.551 4.83413 154.551 11.1366C154.552 24.8764 154.528 38.6165 154.623 52.3557C154.637 54.3933 153.954 55.1129 152.032 54.8642C151.786 54.8323 151.533 54.8575 151.283 54.8561C147.301 54.8326 147.301 54.8326 146.753 50.6889C142.632 54.9526 137.666 56.222 132.13 55.3332C127.931 54.6591 124.49 52.5519 121.843 49.236C116.076 42.0115 116.604 30.0443 122.936 23.4352C129.507 16.5771 138.155 16.2179 147.022 22.7614C147.022 18.026 146.976 13.588 147.051 9.15212C147.073 7.88592 147.447 6.62574 147.866 5.27909ZM146.46 31.9852C144.746 27.7301 141.664 25.2063 137.035 25.0123C128.393 24.6501 122.787 33.5255 126.282 41.8996C128.287 46.7031 132.627 49.1831 137.902 48.5389C142.535 47.973 146.312 44.407 146.896 39.5341C147.177 37.1966 146.701 34.7684 146.46 31.9852Z" fill="white"/>
<path d="M86.8951 44.9995C86.8975 47.6655 86.8431 50.0835 86.9217 52.4972C86.9777 54.2166 86.2438 54.9191 84.5568 54.8978C78.5287 54.8215 79.3118 55.6394 79.3027 49.8077C79.2881 40.3931 79.384 30.978 79.3027 21.5643C79.2851 19.5358 79.994 18.828 81.8997 19.0598C82.2281 19.0997 82.5685 19.0935 82.8983 19.0598C85.3239 18.8125 87.382 19.0158 86.6873 22.8897C89.927 19.4839 93.366 17.9702 97.4888 17.9934C105.22 18.037 111.027 23.0815 111.391 30.7939C111.741 38.1931 111.548 45.6205 111.449 53.0336C111.44 53.6675 110.346 54.2892 109.747 54.9076C109.705 54.9507 109.585 54.9159 109.502 54.9223C104.003 55.3513 104.005 55.3514 104.015 49.7568C104.024 44.4245 104.071 39.0918 104.022 33.76C103.977 28.9397 101.24 25.6764 96.9802 25.1989C92.4455 24.6907 88.2568 27.2362 87.4991 31.8126C86.7988 36.0423 87.0584 40.431 86.8951 44.9995Z" fill="white"/>
<path d="M196.077 38.4928C198.314 32.8234 200.57 27.366 202.601 21.8261C203.368 19.7354 204.341 18.8546 206.712 18.9594C211.727 19.1812 211.651 18.9901 209.728 23.5516C204.949 34.8884 200.281 46.2719 195.5 57.6079C194.568 59.8176 193.523 62.0286 192.189 64.0093C189.518 67.9753 185.535 69.2801 180.893 68.9787C179.413 68.8827 178.805 68.1959 178.944 66.7409C179 66.1639 179.008 65.5686 178.933 64.9954C178.652 62.8491 179.266 61.9205 181.721 61.9367C186.821 61.9703 190.365 56.2539 188.332 51.5146C184.299 42.1163 180.196 32.7482 176.133 23.3629C175.613 22.1615 175.158 20.932 174.43 19.1062C177.196 19.1062 179.551 18.9658 181.866 19.2073C182.428 19.266 182.998 20.5253 183.329 21.3295C186.394 28.7887 189.407 36.2693 192.436 43.7433C192.618 44.1922 192.808 44.6377 193.279 45.7683C194.336 43.0189 195.171 40.8454 196.077 38.4928Z" fill="white"/>
<path d="M165.204 5.04734C171.202 5.06301 170.868 3.82972 170.86 10.4477C170.844 24.36 170.816 38.2724 170.884 52.1843C170.895 54.2182 170.35 55.0079 168.208 54.9507C162.343 54.7942 163.097 55.4184 163.096 49.8792C163.091 35.8832 163.136 21.8872 163.171 7.89122C163.175 6.58594 162.887 5.04824 165.204 5.04734Z" fill="white"/>
<path d="M63.4867 41.5C63.4888 34.7504 63.5639 28.2496 63.4538 21.752C63.4176 19.6188 63.984 18.7962 66.2546 18.873C71.965 19.066 71.0764 18.566 71.0916 23.6892C71.1198 33.1884 71.0341 42.6883 71.1155 52.1868C71.1325 54.1673 70.4542 54.8829 68.5358 54.8633C62.7568 54.8043 63.5396 55.3111 63.514 49.9994C63.5007 47.2497 63.4961 44.4998 63.4867 41.5Z" fill="white"/>
<path d="M262.991 55.0079C259.069 51.0417 255.26 47.2131 251.482 43.3533C249.696 41.5278 249.439 39.7766 250.866 38.6427C252.504 37.341 253.99 37.7098 255.463 39.1978C262.886 46.6972 270.36 54.1468 277.84 61.59C279.101 62.8455 279.48 64.1871 278.187 65.5007C276.856 66.8529 275.281 67.0662 273.791 65.6082C270.227 62.1221 266.674 58.6252 262.991 55.0079Z" fill="#82C8E6"/>
<path d="M71.3929 6.64587C72.6113 8.74917 72.6092 10.8403 71.0569 12.3286C69.9892 13.3523 68.2181 14.1065 66.745 14.135C64.4894 14.1788 62.9164 12.6776 62.4029 10.3734C61.927 8.2373 63.0607 6.02309 65.0803 4.96494C67.1812 3.86413 69.1245 4.34174 71.3929 6.64587Z" fill="#82C8E6"/>
<path d="M237.405 1.92767C239.532 2.45499 240.171 3.75558 239.355 5.51625C238.697 6.93333 237.291 7.3528 236.003 6.49925C235.312 6.04112 234.488 4.64159 234.725 4.16713C235.191 3.2328 236.356 2.64725 237.405 1.92767Z" fill="#82C8E6"/>
<circle cx="259.93" cy="58.22" r="2.5" fill="#82C8E6"/>
<circle cx="252.395" cy="59.945" r="2.5" fill="#82C8E6"/>
<circle cx="244.95" cy="60.205" r="2.5" fill="#82C8E6"/>
<circle cx="237.145" cy="58.435" r="2.5" fill="#82C8E6"/>
<circle cx="230.18" cy="55.295" r="2.5" fill="#82C8E6"/>
<circle cx="224.23" cy="49.53" r="2.5" fill="#82C8E6"/>
<circle cx="220.09" cy="43" r="2.5" fill="#82C8E6"/>
<circle cx="218.43" cy="35.75" r="2.5" fill="#82C8E6"/>
<circle cx="218.49" cy="27.67" r="2.5" fill="#82C8E6"/>
<circle cx="220.43" cy="20.05" r="2.5" fill="#82C8E6"/>
<circle cx="225.07" cy="13.735" r="2.5" fill="#82C8E6"/>
<circle cx="230.715" cy="8.36501" r="2.5" fill="#82C8E6"/>
<circle cx="237.185" cy="4.42999" r="2.5" fill="#82C8E6"/>
<circle cx="244.575" cy="2.63" r="2.5" fill="#82C8E6"/>
<circle cx="279.08" cy="27.74" r="2.5" fill="#82C8E6"/>
<circle cx="279.265" cy="35.64" r="2.5" fill="#82C8E6"/>
<circle cx="277.135" cy="42.99" r="2.5" fill="#82C8E6"/>
<circle cx="272.5" cy="49.5" r="2.5" fill="#82C8E6"/>
<circle cx="276.99" cy="20.12" r="2.5" fill="#82C8E6"/>
<circle cx="272.59" cy="13.34" r="2.5" fill="#82C8E6"/>
<circle cx="266.8" cy="8.145" r="2.5" fill="#82C8E6"/>
<circle cx="252.29" cy="2.57001" r="2.5" fill="#82C8E6"/>
<circle cx="260.13" cy="4.58501" r="2.5" fill="#82C8E6"/>
</svg>
