<svg width="563" height="138" viewBox="0 0 563 138" fill="none" xmlns="http://www.w3.org/2000/svg">
<path d="M56.6466 109.521C55.0392 109.528 53.8609 109.425 52.71 109.558C48.7164 110.019 47.493 108.186 47.562 104.342C47.7563 93.5179 47.6609 82.6888 47.6682 71.8618C47.6694 70.1966 47.6705 68.5276 47.5686 66.8666C46.9495 56.7718 41.3999 50.4855 33.0378 50.364C23.8381 50.2303 16.4348 56.5948 15.8951 66.3317C15.2507 77.9585 15.6467 89.6399 15.366 101.292C15.3027 103.919 14.8541 108.431 13.635 108.782C9.94993 109.843 5.78582 109.468 1.8419 109.186C1.14299 109.136 0.0768705 106.844 0.0709505 105.584C-0.0291325 84.2637 -0.0460846 62.9424 0.171597 41.624C0.184094 40.3999 2.17056 38.7973 3.59504 38.1083C4.80687 37.5222 6.55533 38.1681 8.02845 37.9769C12.674 37.3738 15.9966 38.3445 15.5006 44.1613C34.5668 32.1109 45.4425 33.0928 57.6014 47.3349C59.9167 45.3932 62.1511 43.2366 64.6585 41.4669C74.1742 34.7508 84.4613 33.8648 94.9433 38.6062C105.104 43.2022 109.657 51.8735 109.874 62.6623C110.158 76.8145 109.873 90.9773 109.978 105.135C110 108.114 108.831 109.295 105.977 109.595C95.1428 110.736 94.7791 110.439 94.7726 99.539C94.766 88.7121 94.7735 77.8847 94.6785 67.0583C94.5947 57.5215 89.645 51.4102 81.4595 50.5199C72.6279 49.5594 64.9844 54.9214 63.7185 64.2913C62.6785 71.9893 63.1251 79.8935 62.9999 87.7077C62.9146 93.0365 62.701 98.3867 63.0603 103.692C63.3772 108.37 61.6985 110.257 56.6466 109.521Z" fill="#253D47"/>
<path d="M294.565 10.4182C307.963 9.52824 307.934 9.52824 307.934 22.1332C307.935 49.6128 307.887 77.0929 308.077 104.571C308.105 108.647 306.741 110.086 302.895 109.588C302.404 109.525 301.897 109.575 301.398 109.572C293.435 109.525 293.435 109.525 292.339 101.238C284.095 109.765 274.165 112.304 263.092 110.526C254.694 109.178 247.811 104.964 242.518 98.332C230.985 83.8831 232.039 59.9487 244.704 46.7305C257.846 33.0142 275.143 32.2959 292.876 45.3827C292.876 35.912 292.783 27.036 292.934 18.1642C292.977 15.6318 293.726 13.1115 294.565 10.4182ZM291.752 63.8304C288.324 55.3203 282.16 50.2725 272.902 49.8845C255.618 49.1602 244.406 66.911 251.396 83.6591C255.406 93.2662 264.086 98.2262 274.636 96.9377C283.901 95.8059 291.457 88.674 292.625 78.9282C293.185 74.2531 292.234 69.3967 291.752 63.8304Z" fill="#253D47"/>
<path d="M172.622 89.859C172.627 95.191 172.519 100.027 172.676 104.854C172.788 108.293 171.32 109.698 167.946 109.656C155.89 109.503 157.456 111.139 157.438 99.4753C157.408 80.6462 157.6 61.816 157.438 42.9886C157.403 38.9315 158.82 37.516 162.632 37.9796C163.288 38.0594 163.969 38.047 164.629 37.9797C169.48 37.4849 173.596 37.8915 172.207 45.6394C178.686 38.8278 185.564 35.8004 193.81 35.8468C209.272 35.9339 220.886 46.0229 221.615 61.4478C222.314 76.2462 221.928 91.101 221.73 105.927C221.713 107.195 219.524 108.438 218.326 109.675C218.242 109.761 218.003 109.692 217.837 109.705C206.839 110.562 206.843 110.563 206.861 99.3736C206.879 88.709 206.974 78.0435 206.876 67.3799C206.786 57.7394 201.312 51.2127 192.793 50.2578C183.723 49.2413 175.346 54.3324 173.83 63.4851C172.43 71.9446 172.949 80.7219 172.622 89.859Z" fill="#253D47"/>
<path d="M390.986 76.8456C395.46 65.5069 399.973 54.592 404.035 43.5122C405.568 39.3307 407.514 37.5692 412.256 37.7789C422.286 38.2224 422.134 37.8401 418.289 46.9631C408.731 69.6368 399.394 92.4037 389.832 115.076C387.968 119.495 385.878 123.917 383.21 127.879C377.868 135.811 369.902 138.42 360.617 137.817C357.658 137.625 356.442 136.252 356.721 133.342C356.831 132.188 356.848 130.997 356.698 129.851C356.136 125.558 357.364 123.701 362.275 123.733C372.474 123.801 379.563 112.368 375.496 102.889C367.431 84.0925 359.225 65.3564 351.099 46.5858C350.059 44.183 349.148 41.724 347.692 38.0724C353.223 38.0724 357.933 37.7915 362.563 38.2746C363.688 38.392 364.828 40.9105 365.489 42.519C371.62 57.4375 377.646 72.3986 383.704 87.3467C384.068 88.2444 384.448 89.1354 385.391 91.3965C387.504 85.8977 389.175 81.5507 390.986 76.8456Z" fill="#253D47"/>
<path d="M329.239 9.95469C341.236 9.98603 340.568 7.51945 340.553 20.7554C340.521 48.5799 340.463 76.4049 340.601 104.229C340.621 108.296 339.532 109.876 335.247 109.761C323.518 109.448 325.027 110.697 325.023 99.6183C325.014 71.6264 325.104 43.6344 325.175 15.6425C325.181 13.0319 324.606 9.95649 329.239 9.95469Z" fill="#253D47"/>
<path d="M125.806 82.86C125.81 69.3608 125.96 56.3593 125.74 43.364C125.667 39.0976 126.8 37.4524 131.342 37.6059C142.762 37.9919 140.985 36.992 141.016 47.2383C141.072 66.2368 140.9 85.2365 141.063 104.234C141.097 108.195 139.741 109.626 135.904 109.587C124.346 109.469 125.911 110.482 125.86 99.8589C125.834 94.3593 125.824 88.8596 125.806 82.86Z" fill="#253D47"/>
<path d="M524.814 109.876C516.971 101.943 509.352 94.2862 501.797 86.5665C498.224 82.9155 497.71 79.4131 500.563 77.1454C503.839 74.5419 506.813 75.2796 509.759 78.2557C524.605 93.2545 539.552 108.154 554.512 123.04C557.035 125.551 557.793 128.234 555.206 130.861C552.544 133.566 549.395 133.992 546.414 131.076C539.286 124.104 532.18 117.11 524.814 109.876Z" fill="#82C8E6"/>
<path d="M141.618 13.1517C144.055 17.3583 144.051 21.5405 140.946 24.5173C138.811 26.5646 135.269 28.0729 132.323 28.1301C127.811 28.2175 124.665 25.2151 123.638 20.6067C122.686 16.3346 124.954 11.9062 128.993 9.78987C133.195 7.58824 137.082 8.54347 141.618 13.1517Z" fill="#82C8E6"/>
<path d="M473.641 3.71533C477.896 4.76996 479.175 7.37115 477.541 10.8925C476.226 13.7267 473.415 14.5656 470.839 12.8585C469.456 11.9422 467.807 9.14316 468.281 8.19424C469.215 6.32559 471.545 5.15448 473.641 3.71533Z" fill="#82C8E6"/>
<circle cx="518.692" cy="116.3" r="5" fill="#82C8E6"/>
<circle cx="503.622" cy="119.75" r="5" fill="#82C8E6"/>
<circle cx="488.732" cy="120.27" r="5" fill="#82C8E6"/>
<circle cx="473.122" cy="116.73" r="5" fill="#82C8E6"/>
<circle cx="459.192" cy="110.45" r="5" fill="#82C8E6"/>
<circle cx="447.292" cy="98.92" r="5" fill="#82C8E6"/>
<circle cx="439.012" cy="85.86" r="5" fill="#82C8E6"/>
<circle cx="435.692" cy="71.36" r="5" fill="#82C8E6"/>
<circle cx="435.812" cy="55.2" r="5" fill="#82C8E6"/>
<circle cx="439.692" cy="39.96" r="5" fill="#82C8E6"/>
<circle cx="448.972" cy="27.33" r="5" fill="#82C8E6"/>
<circle cx="460.262" cy="16.59" r="5" fill="#82C8E6"/>
<circle cx="473.202" cy="8.71997" r="5" fill="#82C8E6"/>
<circle cx="487.982" cy="5.12" r="5" fill="#82C8E6"/>
<circle cx="556.992" cy="55.34" r="5" fill="#82C8E6"/>
<circle cx="557.362" cy="71.14" r="5" fill="#82C8E6"/>
<circle cx="553.102" cy="85.84" r="5" fill="#82C8E6"/>
<circle cx="543.832" cy="98.86" r="5" fill="#82C8E6"/>
<circle cx="552.812" cy="40.1" r="5" fill="#82C8E6"/>
<circle cx="544.012" cy="26.54" r="5" fill="#82C8E6"/>
<circle cx="532.432" cy="16.15" r="5" fill="#82C8E6"/>
<circle cx="503.412" cy="5" r="5" fill="#82C8E6"/>
<circle cx="519.092" cy="9.03003" r="5" fill="#82C8E6"/>
</svg>
