<svg width="17" height="16" viewBox="0 0 17 16" fill="none" xmlns="http://www.w3.org/2000/svg">
<path d="M11.7834 13.2099C10.8304 12.2562 9.90455 11.3356 8.9865 10.4075C8.55231 9.96855 8.48983 9.54748 8.83657 9.27484C9.23466 8.96183 9.59602 9.05052 9.954 9.40832C11.758 11.2116 13.5744 13.0028 15.3922 14.7925C15.6988 15.0944 15.7908 15.417 15.4766 15.7329C15.1531 16.058 14.7704 16.1093 14.4081 15.7587C13.542 14.9205 12.6785 14.0796 11.7834 13.2099Z" fill="#82C8E6"/>
<path d="M5.56523 0.446677C6.08224 0.57347 6.23765 0.8862 6.03912 1.30955C5.87935 1.65029 5.5377 1.75115 5.22468 1.54592C5.05666 1.43576 4.85629 1.09924 4.91391 0.985156C5.02735 0.760497 5.31046 0.619699 5.56523 0.446677Z" fill="#82C8E6"/>
<ellipse cx="11.0397" cy="13.9822" rx="0.60758" ry="0.601127" fill="#82C8E6"/>
<ellipse cx="9.20817" cy="14.397" rx="0.60758" ry="0.601127" fill="#82C8E6"/>
<ellipse cx="7.39908" cy="14.4595" rx="0.60758" ry="0.601127" fill="#82C8E6"/>
<ellipse cx="5.50211" cy="14.0339" rx="0.60758" ry="0.601127" fill="#82C8E6"/>
<ellipse cx="3.80924" cy="13.2789" rx="0.60758" ry="0.601127" fill="#82C8E6"/>
<ellipse cx="2.36344" cy="11.8927" rx="0.60758" ry="0.601127" fill="#82C8E6"/>
<ellipse cx="1.35709" cy="10.3226" rx="0.60758" ry="0.601127" fill="#82C8E6"/>
<ellipse cx="0.953771" cy="8.57928" rx="0.60758" ry="0.601127" fill="#82C8E6"/>
<ellipse cx="0.96842" cy="6.63644" rx="0.60758" ry="0.601127" fill="#82C8E6"/>
<ellipse cx="1.43961" cy="4.80421" rx="0.60758" ry="0.601127" fill="#82C8E6"/>
<ellipse cx="2.56754" cy="3.28575" rx="0.60758" ry="0.601127" fill="#82C8E6"/>
<ellipse cx="3.93912" cy="1.99453" rx="0.60758" ry="0.601127" fill="#82C8E6"/>
<ellipse cx="5.51188" cy="1.04836" rx="0.60758" ry="0.601127" fill="#82C8E6"/>
<ellipse cx="7.30778" cy="0.615553" rx="0.60758" ry="0.601127" fill="#82C8E6"/>
<ellipse cx="15.6935" cy="6.65327" rx="0.60758" ry="0.601127" fill="#82C8E6"/>
<ellipse cx="15.7384" cy="8.55283" rx="0.60758" ry="0.601127" fill="#82C8E6"/>
<ellipse cx="15.2209" cy="10.3201" rx="0.60758" ry="0.601127" fill="#82C8E6"/>
<ellipse cx="14.0944" cy="11.8855" rx="0.60758" ry="0.601127" fill="#82C8E6"/>
<ellipse cx="15.1857" cy="4.82104" rx="0.60758" ry="0.601127" fill="#82C8E6"/>
<ellipse cx="14.1164" cy="3.19078" rx="0.60758" ry="0.601127" fill="#82C8E6"/>
<ellipse cx="12.7091" cy="1.94164" rx="0.60758" ry="0.601127" fill="#82C8E6"/>
<ellipse cx="9.18278" cy="0.601127" rx="0.60758" ry="0.601127" fill="#82C8E6"/>
<ellipse cx="11.088" cy="1.08564" rx="0.60758" ry="0.601127" fill="#82C8E6"/>
</svg>
