<svg width="33" height="32" viewBox="0 0 33 32" fill="none" xmlns="http://www.w3.org/2000/svg">
<path d="M23.2207 26.4197C21.3146 24.5124 19.4629 22.6712 17.6268 20.815C16.7584 19.9371 16.6335 19.095 17.3269 18.5497C18.1231 17.9237 18.8458 18.101 19.5618 18.8166C23.1699 22.4231 26.8026 26.0056 30.4381 29.585C31.0514 30.1888 31.2355 30.834 30.607 31.4657C29.96 32.116 29.1945 32.2186 28.4701 31.5174C26.7378 29.841 25.0108 28.1593 23.2207 26.4197Z" fill="#82C8E6"/>
<path d="M10.7843 0.893354C11.8183 1.14694 12.1291 1.7724 11.7321 2.61911C11.4125 3.30059 10.7292 3.50231 10.1032 3.09183C9.76714 2.87152 9.36639 2.19848 9.48162 1.97031C9.7085 1.52099 10.2747 1.2394 10.7843 0.893354Z" fill="#82C8E6"/>
<ellipse cx="21.7332" cy="27.9644" rx="1.21516" ry="1.20225" fill="#82C8E6"/>
<ellipse cx="18.0701" cy="28.794" rx="1.21516" ry="1.20225" fill="#82C8E6"/>
<ellipse cx="14.452" cy="28.919" rx="1.21516" ry="1.20225" fill="#82C8E6"/>
<ellipse cx="10.658" cy="28.0678" rx="1.21516" ry="1.20225" fill="#82C8E6"/>
<ellipse cx="7.27229" cy="26.5578" rx="1.21516" ry="1.20225" fill="#82C8E6"/>
<ellipse cx="4.38069" cy="23.7854" rx="1.21516" ry="1.20225" fill="#82C8E6"/>
<ellipse cx="2.36799" cy="20.6451" rx="1.21516" ry="1.20225" fill="#82C8E6"/>
<ellipse cx="1.56135" cy="17.1586" rx="1.21516" ry="1.20225" fill="#82C8E6"/>
<ellipse cx="1.59065" cy="13.2729" rx="1.21516" ry="1.20225" fill="#82C8E6"/>
<ellipse cx="2.53303" cy="9.60841" rx="1.21516" ry="1.20225" fill="#82C8E6"/>
<ellipse cx="4.78889" cy="6.57151" rx="1.21516" ry="1.20225" fill="#82C8E6"/>
<ellipse cx="7.53205" cy="3.98907" rx="1.21516" ry="1.20225" fill="#82C8E6"/>
<ellipse cx="10.6776" cy="2.09672" rx="1.21516" ry="1.20225" fill="#82C8E6"/>
<ellipse cx="14.2694" cy="1.23111" rx="1.21516" ry="1.20225" fill="#82C8E6"/>
<ellipse cx="31.0408" cy="13.3065" rx="1.21516" ry="1.20225" fill="#82C8E6"/>
<ellipse cx="31.1307" cy="17.1057" rx="1.21516" ry="1.20225" fill="#82C8E6"/>
<ellipse cx="30.0955" cy="20.6403" rx="1.21516" ry="1.20225" fill="#82C8E6"/>
<ellipse cx="27.8426" cy="23.771" rx="1.21516" ry="1.20225" fill="#82C8E6"/>
<ellipse cx="30.0252" cy="9.64207" rx="1.21516" ry="1.20225" fill="#82C8E6"/>
<ellipse cx="27.8865" cy="6.38156" rx="1.21516" ry="1.20225" fill="#82C8E6"/>
<ellipse cx="25.0721" cy="3.88329" rx="1.21516" ry="1.20225" fill="#82C8E6"/>
<ellipse cx="18.0194" cy="1.20225" rx="1.21516" ry="1.20225" fill="#82C8E6"/>
<ellipse cx="21.8299" cy="2.17128" rx="1.21516" ry="1.20225" fill="#82C8E6"/>
</svg>
