<svg width="49" height="48" viewBox="0 0 49 48" fill="none" xmlns="http://www.w3.org/2000/svg">
<path d="M34.6586 39.6296C31.7993 36.7685 29.0218 34.0068 26.2676 31.2225C24.965 29.9057 24.7776 28.6424 25.8178 27.8245C27.0121 26.8855 28.0962 27.1516 29.1701 28.225C34.5824 33.6347 40.0314 39.0084 45.4848 44.3776C46.4047 45.2832 46.6809 46.251 45.7381 47.1986C44.7676 48.174 43.6194 48.3278 42.5327 47.2761C39.9343 44.7615 37.3437 42.2389 34.6586 39.6296Z" fill="#82C8E6"/>
<path d="M16.0033 1.34003C17.5544 1.72041 18.0206 2.6586 17.425 3.92866C16.9457 4.95088 15.9207 5.25346 14.9817 4.63775C14.4776 4.30728 13.8765 3.29772 14.0493 2.95547C14.3897 2.28149 15.239 1.8591 16.0033 1.34003Z" fill="#82C8E6"/>
<ellipse cx="32.4273" cy="41.9466" rx="1.82276" ry="1.80338" fill="#82C8E6"/>
<ellipse cx="26.9326" cy="43.191" rx="1.82276" ry="1.80338" fill="#82C8E6"/>
<ellipse cx="21.5054" cy="43.3785" rx="1.82276" ry="1.80338" fill="#82C8E6"/>
<ellipse cx="15.814" cy="42.1017" rx="1.82276" ry="1.80338" fill="#82C8E6"/>
<ellipse cx="10.7354" cy="39.8367" rx="1.82276" ry="1.80338" fill="#82C8E6"/>
<ellipse cx="6.39796" cy="35.6781" rx="1.82276" ry="1.80338" fill="#82C8E6"/>
<ellipse cx="3.37892" cy="30.9677" rx="1.82276" ry="1.80338" fill="#82C8E6"/>
<ellipse cx="2.16895" cy="25.7379" rx="1.82276" ry="1.80338" fill="#82C8E6"/>
<ellipse cx="2.2129" cy="19.9093" rx="1.82276" ry="1.80338" fill="#82C8E6"/>
<ellipse cx="3.62647" cy="14.4126" rx="1.82276" ry="1.80338" fill="#82C8E6"/>
<ellipse cx="7.01026" cy="9.85726" rx="1.82276" ry="1.80338" fill="#82C8E6"/>
<ellipse cx="11.125" cy="5.9836" rx="1.82276" ry="1.80338" fill="#82C8E6"/>
<ellipse cx="15.8433" cy="3.14509" rx="1.82276" ry="1.80338" fill="#82C8E6"/>
<ellipse cx="21.2315" cy="1.84666" rx="1.82276" ry="1.80338" fill="#82C8E6"/>
<ellipse cx="46.3887" cy="19.9598" rx="1.82276" ry="1.80338" fill="#82C8E6"/>
<ellipse cx="46.5234" cy="25.6585" rx="1.82276" ry="1.80338" fill="#82C8E6"/>
<ellipse cx="44.9707" cy="30.9604" rx="1.82276" ry="1.80338" fill="#82C8E6"/>
<ellipse cx="41.5913" cy="35.6564" rx="1.82276" ry="1.80338" fill="#82C8E6"/>
<ellipse cx="44.8652" cy="14.4631" rx="1.82276" ry="1.80338" fill="#82C8E6"/>
<ellipse cx="41.6572" cy="9.57234" rx="1.82276" ry="1.80338" fill="#82C8E6"/>
<ellipse cx="37.4356" cy="5.82493" rx="1.82276" ry="1.80338" fill="#82C8E6"/>
<ellipse cx="26.8565" cy="1.80338" rx="1.82276" ry="1.80338" fill="#82C8E6"/>
<ellipse cx="32.5723" cy="3.25692" rx="1.82276" ry="1.80338" fill="#82C8E6"/>
</svg>
