<svg width="65" height="64" viewBox="0 0 65 64" fill="none" xmlns="http://www.w3.org/2000/svg">
<path d="M46.0958 52.8394C42.2835 49.0247 38.5802 45.3424 34.9079 41.63C33.1712 39.8742 32.9212 38.1899 34.3082 37.0994C35.9006 35.8473 37.346 36.2021 38.778 37.6333C45.9942 44.8462 53.2596 52.0112 60.5308 59.1701C61.7573 60.3776 62.1256 61.668 60.8685 62.9315C59.5746 64.232 58.0436 64.4371 56.5947 63.0348C53.1302 59.6819 49.676 56.3186 46.0958 52.8394Z" fill="#82C8E6"/>
<path d="M21.2224 1.78671C23.2904 2.29388 23.9121 3.5448 23.118 5.23821C22.4789 6.60117 21.1122 7.00461 19.8602 6.18367C19.1881 5.74304 18.3866 4.39696 18.6171 3.94063C19.0708 3.04199 20.2033 2.4788 21.2224 1.78671Z" fill="#82C8E6"/>
<ellipse cx="43.1208" cy="55.9289" rx="2.43035" ry="2.40451" fill="#82C8E6"/>
<ellipse cx="35.7946" cy="57.588" rx="2.43035" ry="2.40451" fill="#82C8E6"/>
<ellipse cx="28.5583" cy="57.838" rx="2.43035" ry="2.40451" fill="#82C8E6"/>
<ellipse cx="20.9699" cy="56.1356" rx="2.43035" ry="2.40451" fill="#82C8E6"/>
<ellipse cx="14.1984" cy="53.1156" rx="2.43035" ry="2.40451" fill="#82C8E6"/>
<ellipse cx="8.41521" cy="47.5708" rx="2.43035" ry="2.40451" fill="#82C8E6"/>
<ellipse cx="4.38982" cy="41.2902" rx="2.43035" ry="2.40451" fill="#82C8E6"/>
<ellipse cx="2.77654" cy="34.3171" rx="2.43035" ry="2.40451" fill="#82C8E6"/>
<ellipse cx="2.83513" cy="26.5458" rx="2.43035" ry="2.40451" fill="#82C8E6"/>
<ellipse cx="4.7199" cy="19.2168" rx="2.43035" ry="2.40451" fill="#82C8E6"/>
<ellipse cx="9.23162" cy="13.143" rx="2.43035" ry="2.40451" fill="#82C8E6"/>
<ellipse cx="14.7179" cy="7.97814" rx="2.43035" ry="2.40451" fill="#82C8E6"/>
<ellipse cx="21.009" cy="4.19345" rx="2.43035" ry="2.40451" fill="#82C8E6"/>
<ellipse cx="28.193" cy="2.46221" rx="2.43035" ry="2.40451" fill="#82C8E6"/>
<ellipse cx="61.736" cy="26.6131" rx="2.43035" ry="2.40451" fill="#82C8E6"/>
<ellipse cx="61.9157" cy="34.2113" rx="2.43035" ry="2.40451" fill="#82C8E6"/>
<ellipse cx="59.8454" cy="41.2806" rx="2.43035" ry="2.40451" fill="#82C8E6"/>
<ellipse cx="55.3395" cy="47.5419" rx="2.43035" ry="2.40451" fill="#82C8E6"/>
<ellipse cx="59.7048" cy="19.2841" rx="2.43035" ry="2.40451" fill="#82C8E6"/>
<ellipse cx="55.4274" cy="12.7631" rx="2.43035" ry="2.40451" fill="#82C8E6"/>
<ellipse cx="49.7985" cy="7.76657" rx="2.43035" ry="2.40451" fill="#82C8E6"/>
<ellipse cx="35.693" cy="2.40451" rx="2.43035" ry="2.40451" fill="#82C8E6"/>
<ellipse cx="43.3141" cy="4.34256" rx="2.43035" ry="2.40451" fill="#82C8E6"/>
</svg>
