<svg width="67" height="67" viewBox="0 0 67 67" fill="none" xmlns="http://www.w3.org/2000/svg">
<path d="M47.407 54.9379C43.4854 50.9717 39.676 47.1431 35.8985 43.2833C34.1119 41.4578 33.8548 39.7066 35.2815 38.5727C36.9196 37.271 38.4065 37.6398 39.8794 39.1278C47.3025 46.6272 54.7761 54.0768 62.2557 61.52C63.5174 62.7755 63.8962 64.1171 62.6031 65.4307C61.2721 66.7829 59.6972 66.9962 58.2068 65.5382C54.643 62.0521 51.0898 58.5552 47.407 54.9379Z" fill="#82C8E6"/>
<path d="M21.8207 1.85767C23.948 2.38498 24.5874 3.68558 23.7706 5.44624C23.1132 6.86333 21.7074 7.28279 20.4194 6.42924C19.7281 5.97111 18.9036 4.57158 19.1407 4.09712C19.6074 3.1628 20.7724 2.57724 21.8207 1.85767Z" fill="#82C8E6"/>
<circle cx="44.3462" cy="58.15" r="2.5" fill="#82C8E6"/>
<circle cx="36.811" cy="59.875" r="2.5" fill="#82C8E6"/>
<circle cx="29.3662" cy="60.135" r="2.5" fill="#82C8E6"/>
<circle cx="21.561" cy="58.365" r="2.5" fill="#82C8E6"/>
<circle cx="14.5962" cy="55.225" r="2.5" fill="#82C8E6"/>
<circle cx="8.646" cy="49.46" r="2.5" fill="#82C8E6"/>
<circle cx="4.50586" cy="42.93" r="2.5" fill="#82C8E6"/>
<circle cx="2.84619" cy="35.68" r="2.5" fill="#82C8E6"/>
<circle cx="2.90625" cy="27.6" r="2.5" fill="#82C8E6"/>
<circle cx="4.84619" cy="19.98" r="2.5" fill="#82C8E6"/>
<circle cx="9.48584" cy="13.665" r="2.5" fill="#82C8E6"/>
<circle cx="15.1309" cy="8.29498" r="2.5" fill="#82C8E6"/>
<circle cx="21.6011" cy="4.35999" r="2.5" fill="#82C8E6"/>
<circle cx="28.9912" cy="2.56" r="2.5" fill="#82C8E6"/>
<circle cx="63.4961" cy="27.67" r="2.5" fill="#82C8E6"/>
<circle cx="63.6812" cy="35.57" r="2.5" fill="#82C8E6"/>
<circle cx="61.5508" cy="42.92" r="2.5" fill="#82C8E6"/>
<circle cx="56.916" cy="49.43" r="2.5" fill="#82C8E6"/>
<circle cx="61.4062" cy="20.05" r="2.5" fill="#82C8E6"/>
<circle cx="57.0059" cy="13.27" r="2.5" fill="#82C8E6"/>
<circle cx="51.2158" cy="8.07501" r="2.5" fill="#82C8E6"/>
<circle cx="36.7061" cy="2.5" r="2.5" fill="#82C8E6"/>
<circle cx="44.5459" cy="4.51501" r="2.5" fill="#82C8E6"/>
</svg>
